<?xml version="1.0" standalone="no"?>
<!DOCTYPE svg PUBLIC "-//W3C//DTD SVG 20010904//EN"
 "http://www.w3.org/TR/2001/REC-SVG-20010904/DTD/svg10.dtd">
<svg version="1.0" xmlns="http://www.w3.org/2000/svg"
 width="511.000000pt" height="438.000000pt" viewBox="0 0 511.000000 438.000000"
 preserveAspectRatio="xMidYMid meet">

<g transform="translate(0.000000,438.000000) scale(0.100000,-0.100000)"
fill="#000000" stroke="none">
<path d="M374 3985 c11 -99 42 -162 115 -234 98 -97 217 -155 435 -210 104
-27 111 -30 114 -55 2 -16 -2 -26 -10 -27 -7 0 -109 0 -225 1 -134 1 -213 -2
-213 -9 0 -5 23 -34 50 -64 51 -55 173 -127 217 -127 10 0 23 -4 29 -8 5 -5
41 -15 81 -21 76 -13 98 -27 83 -51 -7 -11 -34 -16 -105 -18 -52 -2 -95 -8
-95 -12 0 -24 105 -120 164 -149 62 -32 65 -35 76 -82 9 -38 9 -53 0 -64 -10
-11 -8 -20 9 -41 12 -15 21 -36 21 -48 1 -40 80 -321 128 -456 117 -323 353
-724 550 -934 23 -25 42 -50 42 -55 0 -12 24 -12 -524 -11 l-399 1 -18 23
c-28 35 -83 57 -144 57 -93 0 -154 -43 -198 -141 -17 -36 -21 -66 -21 -155 -1
-99 2 -116 25 -166 15 -30 43 -69 63 -87 32 -28 55 -38 137 -56 19 -4 32 -20
54 -66 16 -33 34 -59 39 -57 6 2 33 35 59 73 37 53 53 68 70 67 12 -2 234 -3
494 -2 319 0 473 -3 478 -10 8 -14 145 -14 145 -1 0 15 325 13 367 -2 27 -10
38 -10 53 0 24 15 226 17 235 2 3 -5 35 -10 70 -10 35 0 67 5 70 10 4 6 152
10 411 10 l404 0 0 59 c0 48 7 75 41 145 22 47 45 86 50 86 7 0 9 -32 5 -87
-3 -49 -6 -113 -8 -143 l-3 -55 385 0 385 0 3 60 c3 48 0 62 -16 75 -10 8 -24
35 -31 60 -8 25 -17 56 -22 70 -43 131 -61 208 -57 252 3 27 1 51 -4 54 -6 4
-58 6 -116 6 -105 0 -107 0 -110 -23 -7 -52 -11 -54 -48 -18 l-35 34 -222 5
c-123 3 -228 1 -235 -4 -8 -5 -12 -28 -11 -60 2 -41 -6 -69 -40 -141 -22 -50
-45 -97 -50 -105 -16 -29 -35 -15 -48 35 -8 28 -19 66 -25 85 -6 19 -13 70
-17 114 l-6 79 -123 0 c-93 0 -125 3 -129 13 -3 8 15 37 39 66 250 299 475
757 576 1176 26 112 28 115 75 154 53 45 58 58 23 58 -35 0 -49 22 -39 61 9
32 15 38 63 57 95 37 161 82 201 136 21 29 26 42 17 47 -7 3 -56 9 -108 13
-111 7 -140 13 -140 31 0 17 23 25 68 25 34 1 92 12 194 38 88 23 203 99 241
159 l24 38 -256 5 c-219 4 -256 7 -256 20 0 16 43 32 140 51 247 48 469 170
537 296 28 51 58 150 58 190 0 22 -25 33 -32 14 -4 -10 -113 -81 -126 -81 -4
0 -27 -9 -51 -20 -79 -39 -293 -105 -451 -139 -25 -5 -52 -12 -61 -16 -12 -4
-19 2 -27 23 -10 30 -30 37 -322 103 -158 36 -479 91 -635 108 -357 41 -731
41 -1025 1 -220 -31 -282 -41 -430 -71 -143 -29 -455 -111 -462 -122 -4 -7 -8
-15 -8 -19 0 -11 -37 -10 -74 1 -17 6 -58 17 -91 26 -240 66 -388 124 -467
186 -20 16 -40 29 -44 29 -4 0 -4 -25 0 -55z m1816 -15 c0 -6 -26 -10 -58 -10
-46 0 -63 -4 -77 -20 -17 -19 -17 -21 0 -40 10 -11 27 -20 37 -20 11 0 16 -4
13 -10 -11 -18 -56 -10 -80 15 -31 31 -31 40 1 70 23 22 37 25 95 25 39 0 69
-4 69 -10z m-275 -40 c17 0 20 -16 5 -25 -5 -3 -10 -14 -10 -24 0 -13 -8 -18
-30 -18 -25 0 -30 4 -30 24 0 13 -4 23 -10 23 -5 0 -10 5 -10 10 0 6 6 10 14
10 7 0 19 7 27 16 11 14 13 14 21 0 5 -9 16 -16 23 -16z m396 20 c6 0 5 -7 0
-17 -6 -10 -12 -31 -16 -46 -8 -37 -29 -29 -33 12 -4 44 4 65 24 57 9 -3 20
-6 25 -6z m174 -22 c1 -15 7 -33 14 -42 19 -23 6 -32 -24 -18 -19 9 -25 19
-25 45 0 19 3 37 7 41 13 13 28 -1 28 -26z m317 9 c7 -12 -8 -37 -23 -37 -5 0
-9 7 -9 15 0 17 -42 30 -66 21 -9 -4 -13 -13 -10 -24 7 -22 -17 -58 -32 -48
-10 6 -9 42 3 81 3 14 128 6 137 -8z m184 2 c42 -22 21 -78 -30 -79 -18 0 -18
1 -3 18 24 26 21 51 -7 58 -34 8 -57 2 -70 -19 -9 -15 -7 -21 8 -32 26 -20 12
-31 -19 -17 -68 31 -25 90 61 86 20 -1 47 -8 60 -15z m-572 -4 c3 -9 -1 -18
-10 -22 -11 -4 -14 -13 -10 -29 8 -29 -10 -31 -41 -5 -28 23 -29 31 -4 31 27
0 35 17 14 29 -15 9 -13 10 13 11 20 0 34 -6 38 -15z m196 -20 c0 -25 -6 -37
-21 -45 -27 -15 -34 -7 -19 20 6 12 9 28 6 35 -6 15 2 25 21 25 8 0 13 -12 13
-35z m538 7 c20 -15 21 -20 10 -43 -9 -19 -20 -26 -40 -26 -19 0 -27 5 -24 12
2 7 0 17 -6 23 -7 7 -4 16 9 30 23 25 23 25 51 4z m-1421 -22 c10 0 13 -5 8
-17 -4 -10 -9 -25 -12 -34 -5 -18 -63 -22 -63 -5 0 6 -3 21 -6 34 -5 16 -2 22
9 22 8 0 18 8 22 18 6 16 7 16 16 0 6 -10 17 -18 26 -18z m483 -10 c0 -16 -7
-20 -35 -20 -34 0 -34 1 -17 19 23 26 52 27 52 1z m1160 -22 c0 -5 -5 -8 -11
-8 -6 0 -9 -9 -6 -20 4 -17 0 -20 -29 -20 -26 0 -34 4 -34 18 0 10 -5 23 -11
29 -8 8 -3 15 18 25 24 12 31 12 50 -1 12 -9 23 -19 23 -23z m-1817 -4 c19 -7
22 -20 7 -29 -5 -3 -10 -14 -10 -23 0 -11 -9 -18 -24 -20 -18 -1 -29 6 -39 28
-14 27 -13 30 7 44 11 8 26 13 31 10 6 -2 18 -7 28 -10z m2001 -24 c18 0 22
-15 6 -25 -5 -3 -10 -14 -10 -24 0 -13 -8 -18 -30 -18 -22 0 -30 5 -30 18 0
10 -4 21 -10 24 -15 9 -12 25 5 25 9 0 18 7 22 16 6 16 7 16 18 0 7 -9 20 -16
29 -16z m-589 -29 c100 -11 357 -53 513 -83 34 -7 62 -18 62 -24 0 -10 -97
-32 -263 -60 -21 -3 -44 -15 -52 -27 -22 -32 -94 -9 -164 54 -59 53 -78 57
-73 16 1 -14 -2 -28 -7 -31 -5 -4 -51 8 -103 26 -92 33 -95 33 -273 32 -166 0
-188 -3 -275 -28 -52 -15 -129 -31 -170 -36 -41 -4 -102 -13 -135 -18 -33 -6
-73 -13 -90 -16 -16 -2 -66 4 -110 13 -44 10 -114 24 -155 31 -177 31 -221 42
-209 55 4 4 157 36 304 64 97 19 211 34 310 40 163 10 771 4 890 -8z m-715
-185 c0 -2 -24 -16 -52 -31 -75 -39 -249 -157 -256 -173 -3 -8 1 -18 9 -23 11
-7 10 -11 -6 -23 -28 -22 -48 -20 -73 7 l-22 23 35 72 c19 40 35 83 35 96 0
23 5 25 68 30 37 3 101 9 142 14 97 11 120 13 120 8z m983 -65 c11 -11 37
-140 37 -190 0 -37 5 -49 34 -76 30 -28 100 -74 167 -110 10 -5 21 -16 24 -24
4 -11 0 -10 -17 2 -13 9 -39 24 -58 34 -19 9 -58 32 -87 50 -29 18 -56 33 -61
33 -23 0 -43 44 -57 124 -9 48 -24 106 -35 129 -11 22 -20 43 -20 45 0 6 64
-9 73 -17z m-394 -17 c78 -23 151 -65 185 -107 23 -29 30 -48 32 -89 1 -30 12
-72 24 -97 12 -25 26 -74 30 -110 10 -79 0 -223 -16 -228 -12 -4 -24 27 -24
64 0 12 -14 39 -32 59 l-32 36 -75 -7 c-42 -4 -132 -8 -201 -9 -72 -1 -136 -6
-150 -13 -22 -10 -19 -12 36 -12 33 -1 84 -8 114 -17 57 -17 66 -16 174 12 61
16 71 16 95 3 14 -8 27 -22 29 -31 3 -13 -4 -15 -35 -11 -24 3 -60 -3 -97 -16
-77 -27 -159 -27 -220 0 -53 23 -107 20 -190 -13 -61 -24 -77 -13 -48 34 33
53 81 93 184 152 54 31 100 56 104 56 3 0 2 -10 -2 -22 l-6 -23 25 23 c14 13
33 45 42 70 10 26 28 64 41 85 25 38 19 46 -18 26 -14 -8 -27 -8 -43 -1 -16 7
-26 7 -33 0 -13 -13 -131 12 -201 43 -25 11 -66 19 -98 19 -46 0 -56 -3 -60
-20 -3 -11 -10 -20 -15 -20 -19 0 -118 -85 -116 -100 2 -11 16 -14 53 -12 49
3 50 2 29 -15 -33 -27 -116 -162 -111 -181 2 -10 7 -16 13 -15 5 1 33 3 62 4
l53 3 4 -180 c3 -98 10 -199 15 -224 6 -25 17 -73 25 -108 8 -35 15 -72 15
-82 0 -22 28 -34 46 -19 10 8 14 35 14 85 0 41 3 74 6 74 3 0 29 -22 57 -50
91 -88 210 -179 255 -197 39 -15 48 -15 70 -2 52 29 81 127 83 278 1 90 12
148 22 121 3 -8 19 -71 36 -140 16 -69 41 -170 56 -225 14 -55 25 -106 25
-114 0 -8 -31 -55 -69 -106 -165 -220 -399 -435 -473 -435 -16 0 -55 19 -95
47 -71 49 -297 268 -348 338 -17 22 -33 42 -36 45 -3 3 -34 45 -67 94 -43 62
-60 95 -57 110 3 11 12 68 21 126 36 252 80 412 155 564 21 44 39 85 39 93 0
16 -42 17 -58 1 -6 -6 -14 -9 -18 -5 -9 9 68 113 134 181 52 54 149 126 170
126 4 0 22 16 39 35 17 19 40 35 51 35 11 0 33 7 48 15 41 21 261 21 333 -1z
m-411 -262 c2 -15 9 -30 15 -34 6 -4 8 -10 3 -15 -8 -8 -27 18 -37 54 -7 21
-1 38 10 28 3 -3 7 -18 9 -33z m108 27 c31 -8 44 -16 44 -29 0 -17 -39 -50
-58 -50 -18 0 -62 50 -62 70 0 23 13 25 76 9z m-1228 -388 c18 -11 -4 -29 -45
-37 -33 -6 -49 7 -39 31 6 16 62 20 84 6z m152 -207 c2 -3 0 -12 -6 -21 -10
-16 -150 -57 -170 -49 -13 5 -28 61 -21 73 5 8 188 5 197 -3z m45 -4 c3 -6 -4
-10 -17 -10 -18 0 -20 2 -8 10 19 12 18 12 25 0z m2197 -15 c-6 -35 -18 -37
-93 -18 -106 27 -103 45 8 41 82 -3 88 -4 85 -23z m-2352 -135 c16 -11 50 -23
77 -26 26 -4 58 -12 69 -20 15 -9 25 -9 32 -2 5 5 18 8 28 6 16 -4 14 -7 -11
-18 -16 -8 -32 -15 -34 -17 -2 -1 2 -15 8 -30 10 -25 16 -28 49 -25 l37 3 77
-158 c94 -194 296 -501 368 -560 10 -9 11 -12 3 -13 -25 0 -28 -2 -62 -22 -33
-21 -34 -21 -48 -2 -7 10 -20 27 -28 37 -8 9 -15 21 -15 25 0 4 -11 19 -25 34
-14 15 -25 30 -25 34 0 3 -16 28 -35 54 -19 26 -35 53 -35 59 0 6 -4 11 -10
11 -5 0 -10 6 -10 14 0 7 -7 19 -15 26 -8 7 -15 21 -15 31 0 11 -4 19 -10 19
-5 0 -10 9 -10 20 0 11 -4 20 -9 20 -5 0 -12 11 -15 25 -4 14 -11 25 -16 25
-6 0 -10 11 -10 25 0 14 -4 25 -10 25 -5 0 -10 11 -10 25 0 14 -4 25 -10 25
-19 0 -10 -27 48 -141 94 -184 203 -360 252 -404 11 -10 20 -31 20 -46 0 -45
18 -79 47 -89 51 -18 78 -38 158 -114 44 -42 86 -76 94 -76 11 0 11 -3 1 -15
-14 -17 -145 -22 -155 -5 -3 6 -23 10 -43 10 -34 0 -45 8 -125 91 -205 213
-399 516 -522 817 -36 91 -115 320 -115 337 0 12 34 3 60 -15z m2310 -33 c0
-15 -54 -176 -94 -281 -64 -169 -225 -454 -343 -609 -77 -101 -193 -235 -209
-241 -24 -9 -182 -7 -188 2 -9 16 90 104 125 111 29 6 34 11 37 39 2 23 23 58
66 110 128 159 260 382 330 557 15 39 31 77 35 85 4 8 16 41 26 73 16 49 25
61 52 72 38 16 42 30 12 38 -13 4 -20 12 -17 24 3 15 14 18 67 20 35 2 66 5
69 8 10 10 32 5 32 -8z m-283 -249 c-3 -8 -6 -5 -6 6 -1 11 2 17 5 13 3 -3 4
-12 1 -19z m-32 -76 c-58 -124 -121 -243 -156 -294 -11 -14 -19 -31 -19 -36 0
-6 -3 -12 -7 -14 -5 -1 -29 -34 -56 -73 -26 -38 -59 -86 -75 -105 -26 -35 -27
-35 -45 -17 -18 18 -18 20 10 50 15 18 30 34 33 37 6 6 72 92 117 152 42 57
153 244 184 308 13 28 25 46 27 40 2 -6 -4 -27 -13 -48z m-1211 -567 c14 -13
26 -28 26 -34 0 -54 -87 -90 -142 -58 -53 29 -59 57 -22 92 20 18 38 25 69 25
31 0 49 -7 69 -25z m121 -25 c46 -37 53 -37 57 -2 4 34 22 32 26 -4 4 -31 -5
-74 -16 -74 -4 0 -23 14 -42 30 -42 36 -60 38 -60 6 0 -28 -15 -43 -23 -22 -7
18 4 96 13 96 4 0 24 -13 45 -30z m460 0 c46 -37 55 -37 55 -5 0 16 6 25 15
25 11 0 15 -12 15 -44 0 -25 -4 -47 -9 -50 -4 -3 -26 8 -47 24 -48 36 -64 37
-64 5 0 -14 -4 -25 -10 -25 -11 0 -14 83 -3 93 9 9 5 11 48 -23z m245 20 c0
-5 -17 -9 -37 -7 -29 1 -38 -2 -41 -15 -2 -13 3 -18 20 -19 l23 -2 -22 -4
c-14 -3 -23 -12 -23 -23 0 -15 9 -20 43 -23 42 -3 42 -4 -8 -5 -59 -2 -75 9
-75 53 0 17 5 36 12 43 14 14 108 16 108 2z m-490 -34 c0 -39 17 -57 48 -49
13 3 22 1 22 -6 0 -15 -83 -14 -98 1 -13 13 -17 70 -5 81 17 18 33 5 33 -27z
m140 -12 c0 -59 -24 -55 -28 4 -2 33 0 42 12 42 12 0 16 -11 16 -46z m-210 -4
c0 -5 -7 -10 -15 -10 -8 0 -15 5 -15 10 0 6 7 10 15 10 8 0 15 -4 15 -10z
m-235 -70 c3 -5 25 -10 47 -10 32 0 50 -8 82 -33 23 -19 68 -51 101 -73 49
-32 68 -38 107 -37 26 0 60 7 75 15 15 8 57 30 93 48 36 18 78 44 93 57 29 24
107 33 107 13 0 -5 -3 -10 -8 -10 -4 0 -45 -36 -91 -80 -81 -78 -103 -91 -116
-70 -3 6 -39 10 -80 10 -41 0 -77 -4 -80 -10 -9 -15 -53 -12 -80 6 -17 11 -42
15 -88 12 -62 -2 -64 -2 -108 39 -24 22 -59 55 -78 72 -27 26 -31 34 -21 46
14 17 36 20 45 5z m625 -159 c0 -7 -44 -31 -56 -31 -2 0 3 11 12 24 14 22 44
26 44 7z m-1943 -74 c35 -39 63 -119 63 -183 0 -23 -9 -72 -21 -109 l-21 -68
21 -28 c20 -27 21 -30 5 -54 -21 -33 -27 -32 -46 8 -16 33 -16 33 -76 29 -75
-5 -109 15 -143 85 -18 39 -23 64 -22 138 0 155 57 232 163 221 35 -3 51 -11
77 -39z m2103 13 c0 -11 20 -53 44 -93 24 -39 55 -92 69 -117 14 -25 29 -44
34 -42 4 1 8 63 8 137 l0 135 25 0 25 0 -2 -217 -2 -218 -28 0 c-20 0 -29 6
-31 20 -5 22 -116 219 -140 247 -19 22 -35 13 -28 -16 3 -11 6 -73 7 -136 l1
-115 -26 0 -26 0 -3 218 -2 217 38 0 c30 0 37 -4 37 -20z m454 -22 c6 -39 19
-81 87 -295 16 -51 29 -95 29 -99 0 -3 -17 -4 -37 -2 -25 2 -37 8 -35 16 1 7
-2 31 -8 53 -12 43 -31 53 -96 47 -33 -3 -41 -8 -56 -38 -9 -19 -14 -45 -11
-57 5 -21 1 -23 -32 -23 -31 0 -36 3 -30 18 8 21 93 304 105 352 5 19 7 43 4
53 -4 14 1 17 34 17 39 0 40 -1 46 -42z m386 -15 c-66 -128 -162 -339 -164
-358 -1 -15 -9 -21 -33 -23 -18 -2 -33 -1 -33 3 0 3 33 74 74 158 107 222 116
244 110 261 -5 13 2 16 35 16 l40 0 -29 -57z m325 37 c26 -29 33 -122 11 -155
-16 -25 -16 -28 3 -59 25 -39 28 -114 7 -155 -21 -40 -56 -51 -161 -51 l-95 0
0 220 0 220 108 0 c96 0 111 -2 127 -20z m251 4 c-3 -8 15 -83 40 -167 25 -84
50 -168 56 -187 6 -19 14 -40 19 -46 13 -16 0 -24 -38 -24 -29 0 -33 3 -33 25
0 14 -7 41 -14 60 -15 34 -17 35 -69 35 -64 0 -77 -11 -82 -72 -2 -35 -7 -44
-25 -46 -35 -6 -52 5 -41 25 19 33 111 358 111 390 0 20 5 23 41 23 33 0 40
-3 35 -16z m-3372 -60 c13 -5 16 -27 16 -135 0 -116 2 -131 20 -149 37 -37 92
-19 106 35 3 13 4 73 2 134 -1 61 0 111 4 111 3 0 14 3 23 6 15 6 17 -7 13
-154 -3 -154 -4 -161 -28 -187 -22 -23 -31 -26 -84 -23 -56 3 -62 5 -83 37
-21 31 -23 45 -23 176 0 122 3 155 16 155 1 0 9 -3 18 -6z m1014 -33 l3 -33
-63 2 c-91 3 -88 4 -88 -39 0 -45 19 -57 71 -46 29 7 30 6 27 -26 -3 -31 -5
-33 -48 -33 l-45 -1 0 -45 0 -45 75 0 75 -1 3 -32 3 -33 -108 3 c-59 2 -107 6
-105 11 1 4 2 83 2 177 l0 169 88 3 c113 5 107 6 110 -31z m128 6 c12 -37 109
-187 119 -184 6 2 9 43 7 104 -3 87 -2 101 13 107 9 3 21 4 26 0 5 -3 9 -86 9
-185 l0 -179 -25 0 c-15 0 -28 7 -32 18 -14 41 -116 203 -126 199 -7 -2 -10
-41 -8 -110 l3 -107 -27 0 -26 0 3 180 c2 150 5 180 18 183 24 5 39 -3 46 -26z
m429 -3 c0 -24 -4 -29 -26 -30 -61 -2 -61 -1 -58 -156 l2 -143 -26 -3 -27 -3
0 150 c0 161 2 155 -52 151 -25 -1 -28 2 -28 28 0 16 2 31 4 33 2 2 51 3 108
3 l103 -2 0 -28z m250 0 l0 -29 -77 -3 -78 -3 0 -39 c0 -44 19 -56 70 -45 28
6 30 5 30 -24 0 -29 -2 -30 -47 -33 l-48 -3 0 -45 0 -45 78 0 77 0 0 -32 0
-33 -105 0 -106 0 2 180 1 179 92 3 c117 5 111 6 111 -28z m-1435 6 c0 -25 89
-300 102 -317 12 -16 -10 -26 -44 -21 -18 2 -22 8 -20 26 2 13 -3 34 -12 46
-12 19 -22 23 -58 20 -48 -3 -68 -23 -68 -67 0 -25 -3 -28 -27 -25 -19 2 -27
8 -24 18 2 8 23 78 47 155 24 77 44 150 44 163 0 18 6 22 30 22 23 0 30 -4 30
-20z m347 -2 c19 -17 23 -32 23 -78 0 -47 -4 -60 -25 -80 -32 -30 -31 -46 4
-115 31 -60 28 -70 -21 -63 -15 2 -23 10 -24 23 -1 11 -12 43 -25 70 -19 40
-30 51 -51 53 l-28 3 0 -76 0 -76 -27 3 c-16 2 -27 6 -25 11 1 4 2 84 2 177
l0 170 87 0 c75 0 90 -3 110 -22z"/>
<path d="M2846 3234 c-10 -26 -7 -44 8 -44 14 0 26 21 26 46 0 19 -26 18 -34
-2z"/>
<path d="M1550 2376 c0 -14 5 -28 10 -31 6 -3 10 5 10 19 0 14 -4 28 -10 31
-6 3 -10 -5 -10 -19z"/>
<path d="M1570 2318 c0 -7 5 -20 10 -28 8 -12 10 -9 10 13 0 15 -4 27 -10 27
-5 0 -10 -6 -10 -12z"/>
<path d="M1601 2248 c-1 -16 4 -28 9 -28 12 0 12 8 0 35 -8 18 -9 17 -9 -7z"/>
<path d="M2022 1628 c-15 -15 -16 -58 -2 -58 6 0 10 -7 10 -16 0 -13 7 -15 31
-10 77 15 81 96 4 96 -17 0 -36 -5 -43 -12z m58 -34 c0 -9 -7 -14 -17 -12 -25
5 -28 28 -4 28 12 0 21 -6 21 -16z"/>
<path d="M706 1229 c-39 -31 -62 -118 -47 -183 15 -65 53 -106 98 -106 38 0
43 18 13 45 -42 38 -14 69 32 35 39 -29 48 -17 48 68 0 130 -70 199 -144 141z
m64 -94 c0 -16 -6 -25 -15 -25 -9 0 -15 9 -15 25 0 16 6 25 15 25 9 0 15 -9
15 -25z"/>
<path d="M3346 1168 c-36 -126 -36 -130 17 -126 47 3 46 3 25 82 -13 48 -34
71 -42 44z"/>
<path d="M3945 1238 c-24 -79 -10 -108 53 -108 60 0 92 21 92 60 0 18 -8 34
-22 44 -27 19 -117 22 -123 4z"/>
<path d="M3943 1058 c-5 -7 -7 -37 -5 -65 l4 -53 63 0 c55 0 66 3 79 22 22 31
20 64 -4 88 -23 23 -121 29 -137 8z"/>
<path d="M4300 1133 c-20 -83 -19 -88 19 -91 45 -5 56 8 42 50 -6 18 -13 45
-16 61 -9 43 -32 33 -45 -20z"/>
<path d="M1323 1068 c-14 -51 -10 -58 28 -58 33 0 37 15 18 69 -15 43 -33 39
-46 -11z"/>
<path d="M1589 1169 c-6 -3 -9 -24 -7 -45 3 -39 3 -39 50 -42 41 -3 49 0 63
22 25 38 7 63 -51 68 -25 2 -50 0 -55 -3z"/>
</g>
</svg>
